<svg version="1.0" xmlns="http://www.w3.org/2000/svg" width="478.000000pt" height="135.000000pt" viewBox="0 0 478.000000 135.000000" preserveAspectRatio="xMidYMid meet">  <g transform="translate(0.000000,135.000000) scale(0.100000,-0.100000)" fill="#000000" stroke="none"> <path d="M190 1208 c-46 -13 -88 -53 -112 -106 -17 -38 -19 -67 -19 -316 0 -299 1 -306 60 -369 53 -58 68 -61 304 -67 l217 -5 0 47 0 46 -192 4 c-182 3 -195 4 -231 27 -21 12 -47 41 -58 63 -20 38 -21 55 -17 274 4 323 -5 313 293 321 l194 6 6 28 c4 16 11 31 16 34 5 4 9 10 9 16 0 12 -425 10 -470 -3z m256 -28 c108 0 163 -3 159 -10 -4 -6 -65 -10 -148 -10 -156 0 -255 -16 -288 -46 -49 -44 -53 -66 -57 -298 -4 -238 1 -276 45 -335 48 -63 118 -79 341 -80 67 -1 112 -5 112 -11 0 -13 -343 -13 -392 0 -21 6 -51 22 -68 37 -59 49 -60 57 -61 357 0 292 4 319 50 360 23 21 108 47 129 40 8 -2 88 -4 178 -4z"/> <path d="M3292 1206 c-106 -17 -123 -31 -170 -126 l-27 -55 0 -245 0 -245 33 -67 c18 -36 43 -73 57 -82 51 -34 143 -49 270 -44 141 6 189 22 239 80 54 63 61 104 61 368 l0 235 -30 60 c-18 36 -43 69 -63 82 -66 43 -233 61 -370 39z m298 -44 c57 -15 68 -22 95 -60 l30 -44 3 -266 c3 -261 2 -268 -20 -312 -41 -81 -115 -110 -276 -110 -110 0 -198 22 -235 58 -15 15 -36 51 -47 80 -18 48 -20 73 -18 285 3 225 4 233 28 281 31 61 62 85 126 95 85 15 244 11 314 -7z"/> <path d="M3339 1161 c-81 -11 -115 -36 -150 -106 -59 -120 -65 -414 -12 -532 50 -110 98 -136 248 -136 103 1 158 15 198 51 32 28 64 103 77 178 17 96 8 332 -14 395 -24 65 -79 126 -124 138 -57 15 -161 20 -223 12z m186 -37 c40 -5 57 -14 85 -43 50 -52 61 -96 67 -257 9 -223 -20 -333 -97 -378 -30 -18 -52 -21 -155 -21 -145 0 -173 11 -210 85 -61 119 -60 428 2 541 30 56 53 70 135 79 63 8 77 7 173 -6z"/> <path d="M3965 1205 c-86 -33 -115 -86 -115 -211 0 -95 27 -150 92 -182 41 -20 156 -46 300 -66 29 -5 60 -17 78 -32 28 -24 30 -30 30 -101 0 -94 -19 -140 -69 -161 -72 -30 -360 3 -361 41 -1 7 -16 -5 -35 -27 -19 -21 -32 -43 -29 -48 12 -20 87 -48 155 -59 108 -17 298 -7 339 17 43 25 69 61 80 110 13 53 12 190 0 236 -15 53 -79 105 -144 116 -235 43 -318 61 -331 72 -11 9 -15 32 -15 80 0 82 20 114 83 131 54 15 262 5 308 -14 32 -13 36 -12 67 11 17 13 32 28 32 32 0 5 -26 21 -57 36 -54 27 -66 28 -213 31 -119 2 -164 -1 -195 -12z m375 -40 c33 -11 41 -33 10 -27 -8 1 -40 7 -70 12 -93 17 -239 12 -285 -9 -66 -30 -79 -52 -83 -140 -5 -106 9 -122 126 -150 48 -11 121 -25 162 -31 98 -14 155 -35 180 -67 18 -23 20 -41 20 -149 0 -138 -8 -165 -56 -195 -30 -18 -49 -20 -192 -20 -180 1 -252 15 -252 48 0 11 6 13 23 8 93 -29 150 -36 252 -33 91 2 115 6 137 23 49 37 58 65 58 172 0 90 -2 101 -23 121 -21 20 -87 53 -104 52 -16 -1 -100 12 -171 26 -162 32 -192 63 -192 195 0 142 31 171 190 179 130 6 224 1 270 -15z"/> <path d="M2356 1148 c-9 -12 -16 -29 -16 -38 0 -27 30 -60 56 -60 29 0 64 32 64 60 0 28 -35 60 -64 60 -14 0 -32 -10 -40 -22z m63 -49 c-13 -24 -42 -21 -47 5 -5 24 17 37 40 25 15 -8 16 -14 7 -30z"/> <path d="M1323 950 c-49 -29 -57 -54 -58 -163 0 -98 0 -99 31 -126 30 -27 37 -28 152 -33 77 -3 127 -10 137 -18 22 -19 20 -121 -3 -150 -17 -21 -26 -22 -116 -21 -53 1 -109 6 -124 12 -23 9 -30 7 -50 -16 -28 -34 -25 -45 19 -67 27 -15 60 -18 171 -18 l138 0 32 29 c33 29 33 29 36 139 4 122 -2 142 -51 172 -26 16 -51 20 -124 20 -91 0 -141 11 -155 33 -19 30 -3 110 26 129 17 12 176 9 220 -3 37 -10 40 -9 62 18 13 15 23 30 24 34 0 3 -20 15 -45 27 -39 19 -62 22 -168 22 -103 0 -127 -3 -154 -20z m278 -22 c22 -6 39 -14 39 -18 0 -4 -55 -5 -123 -2 -122 4 -123 4 -155 -23 -30 -25 -32 -31 -32 -88 1 -98 26 -117 160 -117 56 0 104 -5 125 -14 l35 -15 0 -120 c0 -154 3 -151 -166 -151 -121 0 -195 13 -176 32 6 6 24 6 48 -1 22 -6 76 -11 122 -11 79 0 85 2 113 29 27 28 29 34 29 110 0 76 -1 81 -27 98 -20 14 -55 19 -144 23 -77 3 -122 10 -133 19 -13 11 -16 33 -16 116 0 96 1 104 23 118 13 8 32 17 42 20 39 10 199 7 236 -5z"/> <path d="M1852 950 c-45 -27 -62 -74 -62 -164 0 -131 27 -156 167 -156 93 0 151 -11 165 -32 15 -25 9 -115 -10 -138 -16 -20 -26 -22 -118 -22 -55 1 -113 6 -128 12 -24 9 -31 7 -42 -7 -37 -46 -36 -50 9 -72 37 -18 62 -21 178 -21 150 0 170 7 195 66 16 38 19 190 4 228 -18 48 -53 61 -183 66 -136 6 -147 12 -147 87 0 69 21 83 128 83 48 0 104 -5 125 -11 34 -9 39 -8 61 18 29 33 26 39 -28 64 -62 28 -267 27 -314 -1z m274 -21 c24 -6 44 -15 44 -19 0 -4 -57 -5 -127 -2 l-128 4 -29 -30 c-50 -54 -44 -161 12 -191 10 -5 65 -11 123 -12 75 -1 112 -6 132 -17 27 -16 27 -17 27 -129 0 -154 1 -153 -164 -153 -123 0 -176 9 -176 31 0 7 10 8 33 2 17 -4 76 -8 129 -8 88 0 100 2 120 23 19 19 23 35 26 100 4 72 2 78 -22 102 -24 22 -37 25 -145 30 -156 7 -161 11 -161 129 0 99 12 125 63 140 46 13 190 13 243 0z"/> <path d="M2350 657 l0 -313 48 2 47 2 3 311 2 311 -50 0 -50 0 0 -313z m62 56 c4 -288 1 -333 -18 -333 -12 0 -14 42 -14 280 0 239 2 280 15 280 12 0 15 -36 17 -227z"/> <path d="M2582 948 c-38 -41 -42 -72 -42 -308 l0 -228 26 -31 c26 -31 26 -31 127 -31 56 0 139 3 185 7 l82 6 0 33 0 34 -148 0 c-187 0 -192 2 -192 100 l0 68 133 4 c115 3 138 6 180 27 70 34 87 67 87 169 0 82 -17 148 -43 164 -7 4 -93 8 -193 8 -174 0 -181 -1 -202 -22z m386 -20 c8 -8 12 -49 12 -119 0 -117 -3 -124 -63 -156 -24 -13 -64 -18 -162 -21 -159 -5 -165 -8 -165 -96 0 -97 25 -126 122 -145 39 -8 36 -9 -34 -10 -111 -1 -108 -8 -108 260 0 229 7 274 44 289 34 14 340 12 354 -2z"/> <path d="M2665 910 c-11 -4 -31 -20 -45 -35 -21 -23 -25 -38 -29 -106 -5 -117 -2 -119 162 -119 l129 0 33 33 c64 64 68 170 8 216 -22 18 -39 21 -132 20 -58 0 -115 -4 -126 -9z m249 -33 c29 -21 32 -104 7 -145 -29 -45 -55 -52 -187 -52 l-114 0 0 70 c0 77 12 113 44 128 32 16 228 15 250 -1z"/> <path d="M820 919 c5 -18 11 -33 12 -34 7 -7 152 -25 198 -25 52 0 75 -19 52 -42 -5 -5 -72 -28 -149 -50 -172 -49 -178 -52 -197 -100 -20 -48 -22 -221 -3 -258 22 -45 70 -60 195 -60 101 0 114 2 133 21 l22 22 17 -23 c11 -15 29 -23 49 -24 l31 -1 0 250 c0 218 -2 254 -18 285 -28 58 -66 70 -219 70 l-132 0 9 -31z m267 -14 c62 -26 62 -26 63 -287 0 -131 -3 -238 -6 -238 -3 0 -19 9 -35 21 -16 11 -34 17 -41 13 -7 -4 -3 4 9 17 34 37 43 73 43 168 0 74 -3 93 -21 115 -26 33 -46 33 -162 0 -69 -19 -99 -33 -119 -55 -26 -27 -28 -35 -28 -119 0 -80 3 -92 24 -117 24 -27 27 -28 129 -28 58 0 100 -3 94 -7 -22 -14 -206 -9 -242 6 l-35 15 0 128 c0 70 4 133 8 139 4 6 50 23 102 38 218 62 240 73 240 124 0 34 -31 49 -115 56 -134 11 -156 24 -42 25 66 1 109 -4 134 -14z m-7 -210 c8 -10 11 -46 8 -114 -3 -89 -6 -102 -27 -125 -23 -24 -30 -26 -121 -26 -61 0 -100 4 -108 12 -14 14 -16 175 -3 197 9 14 180 69 217 70 12 1 27 -6 34 -14z"/> </g> </svg>